<svg width="108" height="32" viewBox="0 0 108 32" fill="none" xmlns="http://www.w3.org/2000/svg">
<g clip-path="url(#clip0_0_1)">
<rect width="108" height="32" rx="3" fill="black"/>
<path d="M12 8V12H16V16H12V24H8V8H12ZM20 8V12H16V8H20ZM20 16V24H16V16H20ZM36 8V24H32V20H28V24H24V8H36ZM28 12V16H32V12H28ZM52 8V12H48V20H52V24H40V20H44V12H40V8H52ZM68 8V12H60V8H68ZM60 12V20H64V16H68V24H60V20H56V12H60ZM84 8V24H80V20H76V24H72V8H84ZM76 12V16H80V12H76ZM96 8V12H92V24H88V8H96ZM100 12V24H96V12H100Z" fill="white"/>
</g>
<defs>
<clipPath id="clip0_0_1">
<rect width="108" height="32" rx="3" fill="white"/>
</clipPath>
</defs>
</svg>
