<svg width="104" height="19" viewBox="0 0 104 19" fill="none" xmlns="http://www.w3.org/2000/svg">
<path d="M4.5 0.5V5H9V9.5H4.5V18.5H0V0.5H4.5ZM13.5 0.5V5H9V0.5H13.5ZM13.5 9.5V18.5H9V9.5H13.5ZM31.5 0.5V18.5H27V14H22.5V18.5H18V0.5H31.5ZM22.5 5V9.5H27V5H22.5ZM49.5 0.5V5H45V14H49.5V18.5H36V14H40.5V5H36V0.5H49.5ZM67.5 0.5V5H58.5V0.5H67.5ZM58.5 5V14H63V9.5H67.5V18.5H58.5V14H54V5H58.5ZM85.5 0.5V18.5H81V14H76.5V18.5H72V0.5H85.5ZM76.5 5V9.5H81V5H76.5ZM99 0.5V5H94.5V18.5H90V0.5H99ZM103.5 5V18.5H99V5H103.5Z" fill="white"/>
</svg>
