<?xml version="1.0" standalone="no"?>
<!DOCTYPE svg PUBLIC "-//W3C//DTD SVG 20010904//EN"
 "http://www.w3.org/TR/2001/REC-SVG-20010904/DTD/svg10.dtd">
<svg version="1.0" xmlns="http://www.w3.org/2000/svg"
 width="200.000000pt" height="200.000000pt" viewBox="0 0 200.000000 200.000000"
 preserveAspectRatio="xMidYMid meet">

<g transform="translate(0.000000,200.000000) scale(0.100000,-0.100000)"
fill="#000000" stroke="none">
<path d="M668 1568 l-318 -180 0 -392 0 -391 73 -40 c39 -23 185 -105 323
-184 l252 -142 321 182 321 183 -2 394 -3 394 -315 179 c-173 99 -319 179
-325 178 -5 0 -153 -81 -327 -181z m620 -77 l272 -155 -2 -340 -3 -340 -275
-158 c-152 -87 -282 -155 -290 -152 -8 3 -135 73 -282 156 l-268 152 0 342 0
343 273 155 c149 86 279 155 287 153 9 -1 138 -71 288 -156z"/>
<path d="M939 1333 c-28 -43 -48 -85 -46 -94 10 -36 268 -408 302 -433 19 -15
55 -36 78 -46 49 -22 182 -39 176 -23 -9 23 -445 673 -452 673 -4 0 -30 -35
-58 -77z"/>
<path d="M823 990 c-57 -12 -111 -41 -155 -84 -41 -39 -118 -148 -118 -165 0
-7 39 -11 109 -11 l109 0 31 48 c59 93 121 132 207 132 l47 0 -22 24 c-46 49
-130 72 -208 56z"/>
</g>
</svg>
