<?xml version="1.0" standalone="no"?>
<!DOCTYPE svg PUBLIC "-//W3C//DTD SVG 20010904//EN"
 "http://www.w3.org/TR/2001/REC-SVG-20010904/DTD/svg10.dtd">
<svg version="1.0" xmlns="http://www.w3.org/2000/svg"
 width="225.000000pt" height="225.000000pt" viewBox="0 0 225.000000 225.000000"
 preserveAspectRatio="xMidYMid meet">

<g transform="translate(0.000000,225.000000) scale(0.100000,-0.100000)"
fill="#000000" stroke="none">
<path d="M0 1125 l0 -1125 1125 0 1125 0 0 1125 0 1125 -1125 0 -1125 0 0
-1125z m1445 557 l310 -177 0 -384 0 -384 -314 -179 c-172 -98 -317 -178 -321
-178 -4 0 -148 80 -321 179 l-314 178 0 384 0 384 310 177 c171 97 317 177
325 177 8 0 155 -80 325 -177z"/>
<path d="M838 1607 l-268 -152 1 -335 0 -335 267 -150 c146 -82 274 -150 283
-150 9 0 136 68 282 150 l266 150 1 335 0 335 -269 153 c-148 83 -275 152
-282 152 -8 -1 -134 -69 -281 -153z m511 -414 l223 -336 -71 6 c-80 7 -141 30
-192 75 -19 17 -95 120 -168 230 l-133 200 54 81 c29 44 55 81 58 80 3 0 106
-151 229 -336z m-261 -88 c37 -16 82 -52 82 -66 0 -5 -13 -6 -28 -3 -71 14
-153 -34 -212 -126 l-32 -50 -114 0 -115 0 42 63 c73 109 135 162 219 188 43
13 119 10 158 -6z"/>
</g>
</svg>
