<?xml version="1.0" encoding="UTF-8"?>
<svg version="1.1" xmlns="http://www.w3.org/2000/svg" width="512" height="512">
<path d="M0 0 C2.8079149 -0.00323508 5.6158039 -0.01241761 8.42370605 -0.02124023 C15.21095761 -0.03888283 21.9980307 -0.03524989 28.78528881 -0.02358967 C34.30906304 -0.01449879 39.83278779 -0.01335556 45.35656738 -0.01768494 C46.14738716 -0.01829787 46.93820694 -0.0189108 47.75299096 -0.01954231 C49.36030167 -0.02082141 50.96761236 -0.02211826 52.57492304 -0.02343267 C67.59206243 -0.03479669 82.60910362 -0.02179076 97.6262269 -0.00023121 C110.46831496 0.01763597 123.3102583 0.01453068 136.15234375 -0.00390625 C151.12142689 -0.02538725 166.09042431 -0.03369844 181.05952072 -0.0214572 C182.66040801 -0.02018321 184.26129531 -0.01892572 185.86218262 -0.01768494 C187.04320726 -0.01675928 187.04320726 -0.01675928 188.24809098 -0.01581493 C193.75529964 -0.01238363 199.2624532 -0.01814201 204.76965332 -0.02760315 C211.49534172 -0.03890534 218.22084379 -0.03561269 224.94651127 -0.01448017 C228.3679535 -0.00407859 231.78883482 -0.00186766 235.21031189 -0.01307678 C253.77905216 -0.06826019 271.87682742 0.83410785 289.359375 7.70507812 C290.12975098 7.99987061 290.90012695 8.29466309 291.69384766 8.59838867 C316.64362231 18.4947396 338.53829277 36.6520695 352.609375 59.51757812 C353.2075 60.41992188 353.805625 61.32226562 354.421875 62.25195312 C358.29385523 68.37106474 361.13964146 74.8043067 363.796875 81.51757812 C364.11793213 82.30455078 364.43898926 83.09152344 364.76977539 83.90234375 C371.80968252 102.45234444 372.19116106 121.30934817 372.12695312 140.90820312 C372.1301882 143.71611803 372.13937073 146.52400703 372.14819336 149.33190918 C372.16583596 156.11916074 372.16220302 162.90623383 372.1505428 169.69349194 C372.14145191 175.21726616 372.14030868 180.74099092 372.14463806 186.26477051 C372.14525099 187.05559029 372.14586393 187.84641007 372.14649543 188.66119409 C372.14777453 190.26850479 372.14907139 191.87581549 372.1503858 193.48312616 C372.16174981 208.50026556 372.14874388 223.51730675 372.12718433 238.53443003 C372.10931716 251.37651808 372.11242245 264.21846143 372.13085938 277.06054688 C372.15234037 292.02963002 372.16065157 306.99862744 372.14841032 321.96772385 C372.14713633 323.56861113 372.14587884 325.16949843 372.14463806 326.77038574 C372.14402096 327.5577355 372.14340386 328.34508526 372.14276806 329.15629411 C372.13933675 334.66350276 372.14509514 340.17065633 372.15455627 345.67785645 C372.16585846 352.40354485 372.16256582 359.12904692 372.1414333 365.85471439 C372.13103172 369.27615662 372.12882078 372.69703794 372.14002991 376.11851501 C372.20355042 397.49261839 370.26082387 416.83081388 361.609375 436.51757812 C361.32610352 437.17177734 361.04283203 437.82597656 360.75097656 438.5 C350.80797193 461.02282818 333.62619532 480.69113631 312.609375 493.51757812 C311.536875 494.20078125 310.464375 494.88398438 309.359375 495.58789062 C302.9716746 499.47669897 296.46986287 502.5955891 289.484375 505.26757812 C288.80036621 505.53715332 288.11635742 505.80672852 287.41162109 506.08447266 C269.09659228 512.72699595 250.47712962 513.09824875 231.21875 513.03515625 C228.4108351 513.03839133 225.6029461 513.04757386 222.79504395 513.05639648 C216.00779239 513.07403908 209.2207193 513.07040614 202.43346119 513.05874592 C196.90968696 513.04965504 191.38596221 513.04851181 185.86218262 513.05284119 C185.07136284 513.05345412 184.28054306 513.05406705 183.46575904 513.05469856 C181.85844833 513.05597766 180.25113764 513.05727451 178.64382696 513.05858892 C163.62668757 513.06995294 148.60964638 513.05694701 133.5925231 513.03538746 C120.75043504 513.01752028 107.9084917 513.02062557 95.06640625 513.0390625 C80.09732311 513.0605435 65.12832569 513.06885469 50.15922928 513.05661345 C48.55834199 513.05533946 46.95745469 513.05408197 45.35656738 513.05284119 C44.56921762 513.05222408 43.78186786 513.05160698 42.97065902 513.05097118 C37.46345036 513.04753988 31.9562968 513.05329826 26.44909668 513.0627594 C19.72340828 513.07406159 12.99790621 513.07076894 6.27223873 513.04963642 C2.8507965 513.03923484 -0.57008482 513.03702391 -3.99156189 513.04823303 C-41.29778067 513.15910132 -73.88606173 503.93242019 -101.390625 477.51757812 C-102.29683594 476.67453125 -103.20304687 475.83148438 -104.13671875 474.96289062 C-110.96444725 468.42872604 -116.35487987 461.50243366 -121.390625 453.51757812 C-122.08027344 452.43863281 -122.76992187 451.3596875 -123.48046875 450.24804688 C-127.35348984 443.86239406 -130.47204439 437.36915524 -133.140625 430.39257812 C-133.4102002 429.70856934 -133.67977539 429.02456055 -133.95751953 428.31982422 C-140.60004283 410.00479541 -140.97129563 391.38533275 -140.90820312 372.12695312 C-140.9114382 369.31903822 -140.92062073 366.51114922 -140.92944336 363.70324707 C-140.94708596 356.91599551 -140.94345302 350.12892242 -140.9317928 343.34166431 C-140.92270191 337.81789009 -140.92155868 332.29416533 -140.92588806 326.77038574 C-140.92650099 325.97956596 -140.92711393 325.18874618 -140.92774543 324.37396216 C-140.92902453 322.76665146 -140.93032139 321.15934076 -140.9316358 319.55203009 C-140.94299981 304.53489069 -140.92999388 289.5178495 -140.90843433 274.50072622 C-140.89056716 261.65863817 -140.89367245 248.81669482 -140.91210938 235.97460938 C-140.93359037 221.00552623 -140.94190157 206.03652881 -140.92966032 191.0674324 C-140.92838633 189.46654512 -140.92712884 187.86565782 -140.92588806 186.26477051 C-140.92527096 185.47742075 -140.92465386 184.69007099 -140.92401806 183.87886214 C-140.92058675 178.37165349 -140.92634514 172.86449992 -140.93580627 167.3572998 C-140.94710846 160.6316114 -140.94381582 153.90610933 -140.9226833 147.18044186 C-140.91228172 143.75899963 -140.91007078 140.33811831 -140.92127991 136.91664124 C-140.97773765 117.919101 -139.94970575 99.6471969 -132.765625 81.83007812 C-132.25793579 80.539646 -132.25793579 80.539646 -131.73999023 79.22314453 C-121.77421803 54.79427221 -103.89133662 33.34528818 -81.390625 19.51757812 C-80.31683594 18.83308594 -79.24304688 18.14859375 -78.13671875 17.44335938 C-71.7494338 13.55769935 -65.24932819 10.4388845 -58.265625 7.76757812 C-57.23961182 7.36321533 -57.23961182 7.36321533 -56.19287109 6.95068359 C-37.87784228 0.3081603 -19.25837962 -0.0630925 0 0 Z " fill="#7387DC" transform="translate(140.390625,-0.517578125)"/>
<path d="M0 0 C1.56586031 -0.00807831 1.56586031 -0.00807831 3.16335416 -0.01631981 C6.64298043 -0.03056711 10.12222454 -0.02350341 13.60186768 -0.01637268 C16.10424097 -0.022078 18.60661167 -0.02904289 21.10897827 -0.03717041 C27.19018537 -0.05324054 33.27124373 -0.05520542 39.35245749 -0.04995751 C44.29922434 -0.04590719 49.24596073 -0.04736958 54.19272614 -0.05270576 C55.25100564 -0.0538284 55.25100564 -0.0538284 56.33066453 -0.05497371 C57.76420822 -0.05650528 59.19775191 -0.05804363 60.63129559 -0.05958868 C74.06105615 -0.07330189 87.49075838 -0.06788492 100.92051759 -0.05640347 C113.18468839 -0.04647806 125.44870816 -0.05940181 137.71285567 -0.08333766 C150.32754747 -0.1077707 162.94216907 -0.11732587 175.55688405 -0.11068493 C182.63026015 -0.10720129 189.70352024 -0.10936768 196.77687836 -0.12693596 C203.4319969 -0.14326127 210.08678243 -0.13841107 216.74190903 -0.11963081 C219.17786734 -0.11595417 221.61384711 -0.11902626 224.04978561 -0.1295166 C240.99713758 -0.19690059 255.39222865 -0.2151204 268.18487549 12.2353363 C277.98830556 22.63855429 278.43569626 33.54169879 278.43360901 47.19239807 C278.4372857 48.48525376 278.44096238 49.77810945 278.44475049 51.11014259 C278.45472435 54.68757298 278.45847975 58.2649866 278.4611398 61.84242892 C278.46505617 65.70474882 278.474633 69.56705559 278.48335266 73.42936707 C278.50307121 82.74653112 278.51317375 92.0636962 278.52208045 101.38087589 C278.52646766 105.76946541 278.53183305 110.15805373 278.53706932 114.5466423 C278.55407086 129.13355573 278.56856787 143.72046841 278.57581806 158.30739021 C278.57772789 162.08854803 278.57964824 165.86970585 278.581604 169.65086365 C278.58208774 170.59062785 278.58257148 171.53039206 278.58306988 172.49863397 C278.59138117 187.74291795 278.61674136 202.98712376 278.64918468 218.23137356 C278.68222466 233.88342266 278.70026372 249.53543193 278.7034623 265.18751609 C278.70562937 273.97541848 278.71440761 282.76320656 278.73992348 291.55107498 C278.76158799 299.02956127 278.76970162 306.50790546 278.7599567 313.98641957 C278.75540068 317.80280094 278.75737353 321.61888882 278.77671814 325.43523026 C278.79749322 329.56933828 278.78740196 333.7027905 278.77418518 337.83692932 C278.79063905 339.65223025 278.79063905 339.65223025 278.80742532 341.50420392 C278.74497021 349.55695448 278.74497021 349.55695448 276.49618816 353.63108635 C273.82313227 355.75597504 271.73307356 356.12995576 268.33331299 355.90330505 C264.60839707 354.96496746 262.39362303 352.59150207 259.78643799 349.88768005 C259.22674316 349.33958679 258.66704834 348.79149353 258.09039307 348.22679138 C256.4693991 346.63201422 254.87548692 345.0142041 253.28643799 343.38768005 C252.51686768 342.61810974 251.74729736 341.84853943 250.95440674 341.0556488 C249.66663579 339.76787785 248.38379057 338.47515569 247.10675049 337.17674255 C245.2490053 335.35088999 243.32475769 333.6470605 241.34893799 331.95018005 C238.35842083 329.38102735 235.55527115 326.69450749 232.78643799 323.88768005 C230.03787809 321.10146865 227.25784008 318.43459613 224.28643799 315.88768005 C220.49565014 312.63843332 217.01765374 309.13581974 213.51300049 305.58299255 C210.84787586 302.95527318 208.05032916 300.5235709 205.20831299 298.09080505 C202.59014543 295.7706403 200.15894001 293.2879961 197.73175049 290.77049255 C196.31534022 289.27913521 196.31534022 289.27913521 194.28643799 288.38768005 C194.64737549 289.51045349 195.00831299 290.63322693 195.38018799 291.7900238 C200.40294538 307.80028643 200.40294538 307.80028643 199.28643799 314.38768005 C196.41844298 317.51231665 194.72156467 318.32970461 190.48754025 318.89383793 C188.97365507 318.91706267 187.45933683 318.918364 185.94535828 318.90234375 C185.10834116 318.90928928 184.27132403 318.91623481 183.40894276 318.92339081 C180.60538526 318.9416805 177.80267211 318.93139087 174.99908447 318.92112732 C172.98827989 318.92818512 170.97748062 318.93692955 168.96669006 318.94723511 C163.5034579 318.96976312 158.04051502 318.96678001 152.57725406 318.95791364 C148.01256629 318.95280486 143.44793294 318.96009604 138.88325077 318.96738571 C128.1073606 318.98439808 117.33161195 318.98080833 106.5557251 318.96409607 C95.45456223 318.94720125 84.35379334 318.96297007 73.25267357 318.99531895 C63.71273186 319.02206113 54.17291243 319.02927751 44.63293701 319.02080387 C38.93944666 319.01588474 33.24619293 319.01803439 27.55273247 319.03859138 C22.19194423 319.05701906 16.83171906 319.05090309 11.47096062 319.02639198 C9.51029233 319.02140517 7.54958065 319.02481807 5.5889473 319.03754044 C-8.13598301 319.11950736 -19.63570644 318.16582331 -30.03778076 308.12986755 C-30.59078857 307.55494568 -31.14379639 306.9800238 -31.71356201 306.38768005 C-32.62106201 305.45955505 -33.52856201 304.53143005 -34.46356201 303.57518005 C-39.2155951 296.84313318 -41.82547343 289.07642541 -41.8505764 280.82353115 C-41.85565094 279.93271042 -41.86072549 279.04188969 -41.8659538 278.1240744 C-41.86645156 277.15463223 -41.86694932 276.18519006 -41.86746216 275.18637085 C-41.87184441 274.14925966 -41.87622667 273.11214848 -41.88074172 272.04360968 C-41.89411226 268.56316449 -41.90030469 265.08274461 -41.90643311 261.60227966 C-41.91433545 259.10872789 -41.92260449 256.61517725 -41.93121338 254.12162781 C-41.95515579 246.63527332 -41.97035872 239.14892302 -41.98327345 231.66254339 C-41.98698815 229.5464961 -41.99096115 227.43044946 -41.99502611 225.31440282 C-42.02026507 212.16132687 -42.04230831 199.0082498 -42.05475426 185.85515499 C-42.05768373 182.81073948 -42.06064543 179.766324 -42.06365967 176.72190857 C-42.06440572 175.96527704 -42.06515177 175.2086455 -42.06592043 174.42908574 C-42.07856618 162.18013839 -42.11178115 149.93133645 -42.1534615 137.68245702 C-42.19594498 125.09390169 -42.21945665 112.50542069 -42.22467482 99.91679388 C-42.22808164 92.85395482 -42.23975031 85.79134303 -42.27277756 78.72857475 C-42.30381355 72.08092842 -42.30915904 65.43360527 -42.2973938 58.78587341 C-42.29717332 56.35109545 -42.30545727 53.91629898 -42.32304764 51.48158455 C-42.43565023 34.99354243 -42.07436085 22.92726845 -30.03778076 10.51268005 C-21.24591711 2.47440471 -11.71885051 -0.07328913 0 0 Z " fill="#FEFEFE" transform="translate(137.71356201171875,97.61231994628906)"/>
<path d="M0 0 C2.8079149 -0.00323508 5.6158039 -0.01241761 8.42370605 -0.02124023 C15.21095761 -0.03888283 21.9980307 -0.03524989 28.78528881 -0.02358967 C34.30906304 -0.01449879 39.83278779 -0.01335556 45.35656738 -0.01768494 C46.14738716 -0.01829787 46.93820694 -0.0189108 47.75299096 -0.01954231 C49.36030167 -0.02082141 50.96761236 -0.02211826 52.57492304 -0.02343267 C67.59206243 -0.03479669 82.60910362 -0.02179076 97.6262269 -0.00023121 C110.46831496 0.01763597 123.3102583 0.01453068 136.15234375 -0.00390625 C151.12142689 -0.02538725 166.09042431 -0.03369844 181.05952072 -0.0214572 C182.66040801 -0.02018321 184.26129531 -0.01892572 185.86218262 -0.01768494 C187.04320726 -0.01675928 187.04320726 -0.01675928 188.24809098 -0.01581493 C193.75529964 -0.01238363 199.2624532 -0.01814201 204.76965332 -0.02760315 C211.49534172 -0.03890534 218.22084379 -0.03561269 224.94651127 -0.01448017 C228.3679535 -0.00407859 231.78883482 -0.00186766 235.21031189 -0.01307678 C253.77905216 -0.06826019 271.87682742 0.83410785 289.359375 7.70507812 C290.12975098 7.99987061 290.90012695 8.29466309 291.69384766 8.59838867 C316.64362231 18.4947396 338.53829277 36.6520695 352.609375 59.51757812 C353.2075 60.41992188 353.805625 61.32226562 354.421875 62.25195312 C371.38779926 89.06417271 375.85527436 123.07347818 369.70703125 153.90820312 C363.61762486 180.82489153 350.62403771 203.47924042 330.609375 222.51757812 C329.96226562 223.15953125 329.31515625 223.80148438 328.6484375 224.46289062 C315.80386821 236.71003809 299.39749838 245.80978543 282.35400391 250.61572266 C281.09149811 250.97280304 279.82899231 251.32988342 278.52822876 251.69778442 C277.56500702 251.96831635 276.60178528 252.23884827 275.609375 252.51757812 C275.60440978 251.60373321 275.60440978 251.60373321 275.59934425 250.67142677 C275.5179475 235.81338142 275.42580113 220.95543152 275.32184792 206.09752846 C275.27183221 198.91220836 275.22538853 191.72689903 275.1875 184.54150391 C275.15444798 178.2750811 275.11454496 172.00874477 275.06658494 165.74241769 C275.04145045 162.42774109 275.02065384 159.11313144 275.00603104 155.79838943 C274.98908184 152.08828697 274.9600254 148.3784579 274.92822266 144.66845703 C274.92606247 143.58232117 274.92390228 142.4961853 274.92167664 141.37713623 C274.78853889 129.17134157 272.87123806 119.58349364 264.6015625 110.25195312 C259.2392768 105.06264438 253.74863069 102.50757538 246.609375 100.51757812 C245.99019276 100.34108618 245.37101052 100.16459424 244.73306519 99.98275405 C242.4735997 99.48783772 240.46174769 99.38872584 238.14986324 99.38335705 C237.25693347 99.3788992 236.3640037 99.37444136 235.44401544 99.36984843 C234.46708736 99.37003279 233.49015928 99.37021716 232.48362732 99.3704071 C231.44258144 99.36673042 230.40153556 99.36305373 229.32894284 99.35926563 C225.82923493 99.34822412 222.32955671 99.34438412 218.82983398 99.34057617 C216.3249553 99.33431183 213.82007754 99.32766506 211.31520081 99.32066345 C203.78986965 99.30143326 196.2645437 99.29083432 188.73919424 99.28193566 C185.19266062 99.27754965 181.64612848 99.27218361 178.09959602 99.26694679 C166.30507308 99.2499352 154.51055105 99.23544236 142.71601772 99.22819805 C139.65630021 99.22628825 136.59658271 99.22436791 133.53686523 99.22241211 C132.77641527 99.22192837 132.01596531 99.22144463 131.23247141 99.22094623 C118.92137744 99.21265089 106.61038078 99.18732207 94.29932927 99.15483143 C81.65091878 99.12172351 69.00255767 99.10374587 56.35410362 99.10055381 C49.25610796 99.09839203 42.15825417 99.0896924 35.06030083 99.06409264 C28.37983598 99.04005387 21.69967003 99.03658333 15.0191555 99.04685402 C12.57106427 99.04734923 10.12296044 99.04103327 7.67490768 99.02729797 C4.32430413 99.00955503 0.97461317 99.01669797 -2.37599182 99.02983093 C-3.81796136 99.01337706 -3.81796136 99.01337706 -5.28906161 98.99659079 C-16.30604336 99.10034101 -25.42736743 102.91204501 -33.390625 110.51757812 C-41.81972291 119.56756941 -43.97988688 129.03924205 -43.72365379 141.18289566 C-43.68263561 143.26144301 -43.67181054 145.33827347 -43.66902161 147.41720581 C-43.65735984 153.31868547 -43.60463619 159.21898656 -43.50415039 165.11962891 C-43.44442949 168.74968689 -43.42893908 172.37779893 -43.4403019 176.00829697 C-43.43587512 177.38064135 -43.41482598 178.75304566 -43.37611961 180.12485123 C-43.08037234 190.79325946 -43.08037234 190.79325946 -46.35922241 195.10829163 C-48.61123537 197.13027005 -50.8713802 198.84669817 -53.390625 200.51757812 C-54.32390625 201.27425781 -55.2571875 202.0309375 -56.21875 202.81054688 C-57.01796875 203.43574219 -57.8171875 204.0609375 -58.640625 204.70507812 C-69.07851441 213.1986548 -78.13573219 222.90840181 -86.390625 233.51757812 C-87.16664062 234.47664062 -87.94265625 235.43570313 -88.7421875 236.42382812 C-118.73919598 274.13435308 -133.55588863 318.21453683 -139.390625 365.51757812 C-139.720625 365.51757812 -140.050625 365.51757812 -140.390625 365.51757812 C-140.48209807 333.62732988 -140.55277813 301.73711934 -140.59488632 269.84677033 C-140.59988847 266.07216308 -140.60506582 262.29755608 -140.61035156 258.52294922 C-140.6114008 257.77156989 -140.61245005 257.02019056 -140.61353108 256.24604216 C-140.63088279 244.11860936 -140.66239123 231.99125328 -140.69923618 219.86386582 C-140.73679201 207.39747723 -140.7588916 194.93112851 -140.76697898 182.46468568 C-140.7724366 174.78728282 -140.78960165 167.11009691 -140.82229087 159.43276092 C-140.84616052 153.52158664 -140.84840829 147.61052053 -140.84305573 141.69929695 C-140.84414672 139.29207344 -140.85197551 136.8848409 -140.8674469 134.47766685 C-140.97818819 116.34190646 -139.61769068 98.82377186 -132.765625 81.83007812 C-132.25793579 80.539646 -132.25793579 80.539646 -131.73999023 79.22314453 C-121.77421803 54.79427221 -103.89133662 33.34528818 -81.390625 19.51757812 C-80.31683594 18.83308594 -79.24304688 18.14859375 -78.13671875 17.44335938 C-71.7494338 13.55769935 -65.24932819 10.4388845 -58.265625 7.76757812 C-57.23961182 7.36321533 -57.23961182 7.36321533 -56.19287109 6.95068359 C-37.87784228 0.3081603 -19.25837962 -0.0630925 0 0 Z " fill="#8B9FF4" transform="translate(140.390625,-0.517578125)"/>
<path d="M0 0 C0.33 0 0.66 0 1 0 C1.09177141 32.90940015 1.16214788 65.81876682 1.20426132 98.72826596 C1.2092635 102.6230434 1.21444085 106.51782059 1.21972656 110.41259766 C1.2207758 111.1879019 1.22182505 111.96320615 1.22290608 112.76200446 C1.24026025 125.27742757 1.27177008 137.79277638 1.30861118 150.30815557 C1.3461601 163.17230867 1.36826516 176.03642315 1.37635398 188.90062881 C1.38181301 196.8237044 1.39898595 204.74656989 1.43166587 212.66958073 C1.45552511 218.76878246 1.457785 224.86782761 1.45243073 230.96706963 C1.45352221 233.45169547 1.46135772 235.93633001 1.4768219 238.42090797 C1.59925822 259.12530875 -0.62438329 277.94090434 -9 297 C-9.28327148 297.65419922 -9.56654297 298.30839844 -9.85839844 298.98242188 C-19.80140307 321.50525006 -36.98317968 341.17355818 -58 354 C-59.0725 354.68320312 -60.145 355.36640625 -61.25 356.0703125 C-90.98129887 374.17061714 -126.91308808 377.37554603 -160.4375 369.375 C-193.37684846 359.94873964 -222.08973459 337.7862983 -239 308 C-251 285.93269231 -251 285.93269231 -251 277 C-250.10686096 276.99413376 -249.21372192 276.98826752 -248.29351807 276.98222351 C-239.87695246 276.92432241 -231.46065297 276.85226059 -223.04434586 276.76428509 C-218.71740836 276.71955539 -214.39056559 276.68030512 -210.06347656 276.65356445 C-205.88765915 276.62755722 -201.71220572 276.58717346 -197.53661346 276.53681374 C-195.94346392 276.52012748 -194.35025139 276.50862415 -192.75702667 276.50238609 C-190.52545504 276.49276381 -188.2948183 276.46472894 -186.06347656 276.43237305 C-184.79328674 276.42126999 -183.52309692 276.41016693 -182.2144165 276.39872742 C-178.78974777 275.97391958 -177.3363393 275.51485888 -175 273 C-174.06222527 265.84946766 -175.98775745 259.85152314 -178.125 253.0390625 C-179 250 -179 250 -179 247 C-175.06785699 248.58939426 -172.66979654 251.16342502 -169.75 254.1875 C-165.96206278 258.06613609 -162.08522196 261.73954535 -157.9609375 265.2578125 C-154.90770829 267.97044244 -152.0859685 270.90600453 -149.21875 273.8125 C-147.20569368 275.79720342 -145.14553597 277.66096916 -143 279.5 C-140.02859791 282.04691608 -137.2485599 284.71378859 -134.5 287.5 C-131.77170593 290.26560408 -129.01483166 292.91287031 -126.0625 295.4375 C-121.9455409 298.96161699 -118.17571212 302.78905138 -114.39453125 306.66796875 C-110.19135419 311.00992303 -110.19135419 311.00992303 -104.8671875 313.53125 C-100.71673086 313.52203975 -100.71673086 313.52203975 -97.28273296 311.463871 C-95.49905044 308.03777705 -95.57692234 304.85034284 -95.60127258 301.07806396 C-95.59462576 300.27427 -95.58797893 299.47047604 -95.58113068 298.64232469 C-95.5624618 295.94599179 -95.56510856 293.25010114 -95.56762695 290.55371094 C-95.55861217 288.62210461 -95.54828565 286.69050401 -95.53674316 284.75891113 C-95.50911381 279.51136646 -95.49988058 274.26393014 -95.49388909 269.01632214 C-95.48452087 263.53364435 -95.45831876 258.05104801 -95.43388367 252.56842041 C-95.39017223 242.18460812 -95.36165378 231.80081159 -95.33856028 221.41693521 C-95.31153351 209.59598069 -95.26762045 197.77510792 -95.22227156 185.95421171 C-95.12935875 161.63618543 -95.0577084 137.3181335 -95 113 C-94.19649361 112.69881256 -94.19649361 112.69881256 -93.37675476 112.39154053 C-92.31180534 111.99228363 -92.31180534 111.99228363 -91.2253418 111.58496094 C-90.52467087 111.32229431 -89.82399994 111.05962769 -89.10209656 110.78900146 C-53.95646732 97.59743191 -28.09329222 76.68494786 -11.34375 42.6328125 C-5.19463942 29.0482978 -1.59480864 14.80553696 0 0 Z " fill="#5A6EC3" transform="translate(511,139)"/>
<path d="M0 0 C0 0.99 0 1.98 0 3 C-1.68802734 3.61875 -1.68802734 3.61875 -3.41015625 4.25 C-11.25331605 7.17926947 -18.92072937 10.23722684 -26.3125 14.1875 C-26.91521729 14.50783203 -27.51793457 14.82816406 -28.13891602 15.15820312 C-31.72457006 17.12795219 -34.87935764 19.35945646 -38 22 C-36.82566406 21.46890625 -35.65132812 20.9378125 -34.44140625 20.390625 C-23.75358363 15.6620935 -13.4557653 12.25535379 -2 10 C-1.01 9.78730469 -0.02 9.57460937 1 9.35546875 C33.19619552 2.53340903 65.26060115 8.989013 95 22 C82.65831175 13.98726817 69.98927015 7.6824792 56 3 C56 2.01 56 1.02 56 0 C72.81923995 -1.45551115 93.40481533 6.07623054 106.61328125 16.421875 C111.77944771 22.00234941 114.28351655 28.99680347 117 36 C117.33628418 36.83901855 117.67256836 37.67803711 118.01904297 38.54248047 C125.65915238 57.72349728 130.5726086 77.18223885 133.375 97.625 C133.54290039 98.84509766 133.71080078 100.06519531 133.88378906 101.32226562 C136.60268973 122.92078973 136.60268973 122.92078973 133.1640625 129.52734375 C132.32617188 130.32269531 131.48828125 131.11804688 130.625 131.9375 C129.70589844 132.81664062 128.78679687 133.69578125 127.83984375 134.6015625 C115.97585143 144.62149549 103.42766547 150.6466273 88 153 C87.14148438 153.16242188 86.28296875 153.32484375 85.3984375 153.4921875 C81.56463986 153.92694806 79.77046892 153.59824645 76.67578125 151.1953125 C71.20628343 145.52536188 71.20628343 145.52536188 70.57421875 140.8515625 C71 138 71 138 72.3984375 136.53125 C73.05070313 136.1909375 73.70296875 135.850625 74.375 135.5 C75.10589844 135.09394531 75.83679688 134.68789063 76.58984375 134.26953125 C77.78287109 133.64111328 77.78287109 133.64111328 79 133 C86.11031117 129.02960224 92.09383678 124.62084133 98 119 C95.05675368 119.98108211 92.38627765 121.25992576 89.60766602 122.62817383 C59.63060431 137.26091888 24.44760977 142.86582729 -8 133 C-9.06831055 132.68651611 -9.06831055 132.68651611 -10.15820312 132.36669922 C-21.50485466 128.95810791 -31.70251995 123.799582 -42 118 C-38.15330463 122.92109288 -34.33786931 126.521638 -29 129.75 C-28.40960938 130.12253906 -27.81921875 130.49507812 -27.2109375 130.87890625 C-23.57339002 133.14636426 -19.83985101 135.10293075 -16 137 C-15 138 -15 138 -14.734375 140.7578125 C-15.12942361 145.57972935 -17.20080024 147.78346411 -20.4765625 151.19140625 C-24.26899606 153.90951266 -27.16307912 153.93217866 -31.7265625 153.55859375 C-47.47228429 150.87167464 -60.22527448 144.75966297 -72 134 C-72.73992187 133.36191406 -73.47984375 132.72382813 -74.2421875 132.06640625 C-77.93478984 128.4998566 -79.43307477 125.86450931 -79.5625 120.6875 C-79.42000032 118.45500496 -79.22669613 116.22552222 -79 114 C-78.8880095 112.59255181 -78.77741397 111.18499215 -78.66796875 109.77734375 C-76.2801898 81.75393798 -69.36149352 54.72597141 -58 29 C-57.50886719 27.865625 -57.01773438 26.73125 -56.51171875 25.5625 C-50.57803633 13.26055561 -37.3969808 7.70575119 -25.0546875 3.30664062 C-16.65025325 0.54202409 -8.82089026 -0.5913446 0 0 Z " fill="#7487DC" transform="translate(228,184)"/>
<path d="M0 0 C29.53744753 -0.84392707 58.89654073 13.97681909 80.046875 33.734375 C88.17977061 41.52875455 95.07967368 49.37946973 101 59 C101.598125 59.90234375 102.19625 60.8046875 102.8125 61.734375 C119.77842426 88.54659458 124.24589936 122.55590006 118.09765625 153.390625 C112.00824986 180.3073134 99.01466271 202.9616623 79 222 C78.35289062 222.64195312 77.70578125 223.28390625 77.0390625 223.9453125 C64.19449321 236.19245997 47.78812338 245.2922073 30.74462891 250.09814453 C29.48212311 250.45522491 28.21961731 250.8123053 26.91885376 251.1802063 C25.95563202 251.45073822 24.99241028 251.72127014 24 252 C23.76623822 236.97953298 23.58998027 221.95920703 23.48187828 206.93730736 C23.43034589 199.96198037 23.36011552 192.98778445 23.24560547 186.01318359 C23.13515712 179.28275634 23.07716753 172.55374681 23.05122757 165.82237625 C23.03274174 163.25376506 22.99664155 160.68521865 22.94269943 158.11710739 C22.8701419 154.51985256 22.86010608 150.92745801 22.86474609 147.32958984 C22.81081696 145.73491882 22.81081696 145.73491882 22.75579834 144.10803223 C22.79795197 141.08973963 22.92671703 138.82486575 24 136 C27.04804985 133.2966199 30.33323691 131.71269524 34 130 C37.56311825 127.2239159 40.77482701 124.15968725 44 121 C44.62777344 120.40832031 45.25554687 119.81664063 45.90234375 119.20703125 C57.38376822 107.41318707 63.27906652 89.22358844 63.4375 73 C63.07683545 54.5339748 57.55670049 37.8681781 45 24 C44.41992188 23.32839844 43.83984375 22.65679688 43.2421875 21.96484375 C31.60777258 9.33249784 16.38148718 4.11578719 0 1 C0 0.67 0 0.34 0 0 Z " fill="#7287DC" transform="translate(392,0)"/>
<path d="M0 0 C2.7694252 11.33303789 4.45158023 22.76378983 5.70996094 34.35351562 C5.88809937 35.97895386 6.07863872 37.60316167 6.29003906 39.22460938 C7.00356132 44.89361369 7.18240341 49.0929767 4.11328125 54.04296875 C-7.59581696 67.66375646 -23.42276481 75.31872683 -41 78 C-41.85851562 78.16242188 -42.71703125 78.32484375 -43.6015625 78.4921875 C-47.43536014 78.92694806 -49.22953108 78.59824645 -52.32421875 76.1953125 C-57.79371657 70.52536188 -57.79371657 70.52536188 -58.42578125 65.8515625 C-58 63 -58 63 -56.6015625 61.53125 C-55.94929688 61.1909375 -55.29703125 60.850625 -54.625 60.5 C-53.89410156 60.09394531 -53.16320312 59.68789063 -52.41015625 59.26953125 C-51.61480469 58.85058594 -50.81945312 58.43164062 -50 58 C-42.88968883 54.02960224 -36.90616322 49.62084133 -31 44 C-33.94416772 44.98138924 -36.61564433 46.26132434 -39.39575195 47.62866211 C-65.19129243 60.2343251 -65.19129243 60.2343251 -78.25 60.0625 C-79.14203125 60.05347656 -80.0340625 60.04445313 -80.953125 60.03515625 C-81.62859375 60.02355469 -82.3040625 60.01195312 -83 60 C-77.07811129 47.43222993 -66.66127846 34.56243739 -55 27 C-53.31786994 25.60172939 -51.6512911 24.18455914 -50 22.75 C-37.58173852 12.52713967 -16.6831476 0 0 0 Z " fill="#5B6FC3" transform="translate(357,259)"/>
<path d="M0 0 C9.5796026 9.34011254 9.5796026 9.34011254 9.8125 17.0625 C9.73239872 23.1590976 8.18480516 28.42169146 4.07421875 33.0390625 C-1.56559633 38.02308513 -7.11328617 39.01391713 -14.421875 38.87890625 C-20.14263162 38.05854394 -24.38938342 35.16371308 -27.90625 30.62109375 C-31.13651436 25.27962089 -32.0984221 20.62119504 -31.5 14.4375 C-29.37838681 7.9070711 -26.20654196 2.96468586 -20.234375 -0.5625 C-13.65087601 -2.97017963 -6.37748446 -2.84709128 0 0 Z " fill="#FCFDFE" transform="translate(298.5,253.5625)"/>
<path d="M0 0 C4.64398163 2.79804751 7.62474362 6.5436749 9.625 11.5625 C10.68273187 17.7871379 10.68922812 23.57427939 7.4375 29.125 C3.9461224 33.79656158 0.14441185 36.67449158 -5.375 38.5625 C-11.53349509 39.25275345 -17.22429152 39.3084698 -22.375 35.5625 C-27.89226965 30.05670077 -30.50501312 26.32306989 -30.8125 18.375 C-30.77395334 12.60584974 -29.86633396 9.43577193 -26.03125 5.1484375 C-18.77618424 -1.79863018 -9.64579384 -4.10459312 0 0 Z " fill="#FDFDFE" transform="translate(231.375,253.4375)"/>
<path d="M0 0 C0.66 0.33 1.32 0.66 2 1 C1 4 1 4 -0.99609375 5.203125 C-1.80175781 5.54859375 -2.60742188 5.8940625 -3.4375 6.25 C-4.24058594 6.60578125 -5.04367188 6.9615625 -5.87109375 7.328125 C-8 8 -8 8 -10 7 C-6.7 4.69 -3.4 2.38 0 0 Z " fill="#EBEEFA" transform="translate(198,199)"/>
</svg>
