<?xml version="1.0" encoding="UTF-8"?>
<svg version="1.1" xmlns="http://www.w3.org/2000/svg" width="512" height="512">
<path d="M0 0 C153.12 0 306.24 0 464 0 C464 110.88 464 221.76 464 336 C310.88 336 157.76 336 0 336 C0 225.12 0 114.24 0 0 Z " fill="#FECB04" transform="translate(24,88)"/>
<path d="M0 0 C79.2 0 158.4 0 240 0 C240 42.24 240 84.48 240 128 C160.8 128 81.6 128 0 128 C0 85.76 0 43.52 0 0 Z " fill="#005195" transform="translate(248,296)"/>
<path d="M0 0 C79.2 0 158.4 0 240 0 C240 42.24 240 84.48 240 128 C160.8 128 81.6 128 0 128 C0 85.76 0 43.52 0 0 Z " fill="#005195" transform="translate(248,88)"/>
<path d="M0 0 C47.52 0 95.04 0 144 0 C144 42.24 144 84.48 144 128 C96.48 128 48.96 128 0 128 C0 85.76 0 43.52 0 0 Z " fill="#005195" transform="translate(24,296)"/>
<path d="M0 0 C47.52 0 95.04 0 144 0 C144 42.24 144 84.48 144 128 C96.48 128 48.96 128 0 128 C0 85.76 0 43.52 0 0 Z " fill="#005195" transform="translate(24,88)"/>
</svg>
