<?xml version="1.0" encoding="iso-8859-1"?>
<!-- Uploaded to: SVG Repo, www.svgrepo.com, Generator: SVG Repo Mixer Tools -->
<svg version="1.1" id="Layer_1" xmlns="http://www.w3.org/2000/svg" xmlns:xlink="http://www.w3.org/1999/xlink" 
	 viewBox="0 0 512 512" xml:space="preserve">
<rect x="285.081" y="58.941" transform="matrix(-0.7071 -0.7071 0.7071 -0.7071 445.9474 388.7054)" style="fill:#DFDFE1;" width="36.792" height="86.105"/>
<path style="fill:#FFEA8A;" d="M368.61,140.923c28.736-28.736,28.737-75.327,0-104.064s-75.327-28.736-104.064,0L368.61,140.923z"/>
<path style="fill:#FFDB2D;" d="M316.579,88.89l52.031,52.032c28.737-28.737,28.737-75.327,0-104.064L316.579,88.89z"/>
<polygon style="fill:#88888F;" points="238.345,125.682 201.553,125.682 201.553,74.207 136.16,30.612 156.569,0 238.345,54.517 "/>
<path style="fill:#B4D8F1;" d="M367.118,248.323c0-75.547-49.056-59.358-49.056-134.905H170.893
	c0,75.547-49.056,59.358-49.056,134.905c0,67.732,54.909,122.641,122.641,122.641S367.118,316.056,367.118,248.323z"/>
<path style="fill:#98C8ED;" d="M318.062,113.418h-73.584v257.545c67.732,0,122.641-54.907,122.641-122.641
	C367.118,172.776,318.062,188.966,318.062,113.418z"/>
<rect x="226.075" y="358.699" style="fill:#B4D8F1;" width="36.792" height="134.905"/>
<rect x="170.887" y="475.208" style="fill:#98C8ED;" width="147.169" height="36.792"/>
<path style="fill:#FFAF33;" d="M121.837,248.323c0,67.733,54.909,122.641,122.641,122.641s122.641-54.907,122.641-122.641
	c0-32.621-9.148-48.136-19.543-61.32H141.378C130.984,200.186,121.837,215.702,121.837,248.323z"/>
<path style="fill:#FF9408;" d="M347.575,187.002H244.477v183.961c67.732,0,122.641-54.907,122.641-122.641
	C367.118,215.702,357.969,200.186,347.575,187.002z"/>
</svg>