<?xml version="1.0" encoding="iso-8859-1"?>
<!-- Uploaded to: SVG Repo, www.svgrepo.com, Generator: SVG Repo Mixer Tools -->
<svg height="800px" width="800px" version="1.1" id="Layer_1" xmlns="http://www.w3.org/2000/svg" xmlns:xlink="http://www.w3.org/1999/xlink" 
	 viewBox="0 0 511.989 511.989" xml:space="preserve">
<path style="fill:#E8AA3D;" d="M42.868,63.998c0-17.688,14.312-32,31.999-32h266.658c11.78,0,21.343,9.531,21.343,21.312v42.687
	H106.866H64.18H42.868V63.998z"/>
<path style="fill:#F6BB42;" d="M106.866,447.991V31.999h266.658c17.656,0,32,14.312,32,32v415.991H138.865L106.866,447.991z"/>
<path style="fill:#FFCE54;" d="M448.179,458.646c0,11.781-9.531,21.344-21.312,21.344H138.865c0,0,10.656-9.562,10.656-21.344
	v-42.654h298.658V458.646z"/>
<g>
	<path style="fill:#F6BB42;" d="M106.866,447.991v-31.999h63.999v31.999c0,17.671-14.343,31.999-31.999,31.999
		C121.178,479.99,106.866,465.661,106.866,447.991z"/>
	<path style="fill:#F6BB42;" d="M74.867,31.999h31.999v32C106.866,46.311,92.522,31.999,74.867,31.999z"/>
</g>
<path style="fill:#FC6E51;" d="M21.336,437.319c0,5.891-4.781,10.672-10.672,10.672C4.774,447.991,0,443.21,0,437.319
	s4.773-10.672,10.664-10.672S21.336,431.428,21.336,437.319z"/>
<path style="fill:#ED5564;" d="M85.335,309.32c0,5.891-4.781,10.672-10.671,10.672S64,315.211,64,309.32s4.773-10.671,10.664-10.671
	S85.335,303.431,85.335,309.32z"/>
<path style="fill:#4FC2E9;" d="M511.989,373.32c0,5.891-4.781,10.671-10.655,10.671c-5.906,0-10.688-4.78-10.688-10.671
	s4.781-10.672,10.688-10.672C507.208,362.648,511.989,367.43,511.989,373.32z"/>
<path style="fill:#FFCE54;" d="M511.989,74.654c0,5.891-4.781,10.671-10.655,10.671c-5.906,0-10.688-4.781-10.688-10.671
	s4.781-10.656,10.688-10.656C507.208,63.998,511.989,68.764,511.989,74.654z"/>
<path style="fill:#48CFAD;" d="M458.647,202.651v-10.656c0-5.907-4.766-10.672-10.656-10.672s-10.656,4.765-10.656,10.672v10.656
	c-5.906,0-10.687,4.781-10.687,10.672s4.78,10.672,10.687,10.672v10.655c0,5.891,4.766,10.672,10.656,10.672
	s10.656-4.781,10.656-10.672v-10.655c5.906,0,10.688-4.781,10.688-10.672S464.554,202.651,458.647,202.651z"/>
<path style="fill:#AC92EB;" d="M32,159.995v-10.671c0-5.89-4.773-10.671-10.664-10.671s-10.672,4.781-10.672,10.671v10.671
	C4.774,159.995,0,164.762,0,170.652s4.773,10.672,10.664,10.672v10.672c0,5.89,4.781,10.656,10.672,10.656S32,197.885,32,191.995
	v-10.671c5.891,0,10.665-4.781,10.665-10.672S37.891,159.995,32,159.995z"/>
<g>
	<path style="fill:#ED5564;" d="M192.552,147.84c5.891-0.203,10.5-5.141,10.296-11.031c-0.172-5.062,1.969-7.562,4.031-8.219
		c2.211-0.703,4.539,0.516,6.383,3.328c0.766,1.156,1.18,1.984,1.414,2.5c-0.5,0.594-1.242,1.359-1.836,1.984
		c-3.906,4.078-10.445,10.906-11.297,23.421c-0.398,5.875,4.039,10.969,9.914,11.359c0.25,0.016,0.492,0.031,0.742,0.031
		c5.555,0,10.242-4.312,10.632-9.938c0.32-4.796,2.352-6.921,5.422-10.125c4.797-5.015,13.726-14.343,2.852-30.921
		c-7.148-10.921-19.195-15.624-30.679-11.968c-11.96,3.781-19.375,15.28-18.898,29.28
		C181.724,143.434,186.669,148.059,192.552,147.84z"/>
	<path style="fill:#ED5564;" d="M318.588,233.104c-0.172-5.062,1.969-7.562,4.031-8.219c2.219-0.703,4.547,0.516,6.391,3.328
		c0.766,1.156,1.172,1.984,1.406,2.5c-0.5,0.594-1.234,1.359-1.828,1.984c-3.906,4.078-10.438,10.906-11.297,23.406
		c-0.406,5.891,4.047,10.969,9.922,11.375c0.25,0.016,0.484,0.031,0.719,0.031c5.562,0,10.249-4.312,10.64-9.953
		c0.328-4.781,2.359-6.906,5.422-10.109c4.797-5.016,13.718-14.343,2.859-30.937c-7.156-10.906-19.202-15.609-30.671-11.969
		c-11.969,3.797-19.391,15.297-18.906,29.296c0.188,5.891,5.125,10.516,11.016,10.297
		C314.182,243.932,318.791,238.994,318.588,233.104z"/>
	<path style="fill:#ED5564;" d="M253.894,146.512c1.32,1.328,1.609,2.296,1.18,3.984c-0.445,1.781-1.562,3.438-1.953,3.922
		l0.039-0.047c-1.492,1.844-2.391,4.187-2.391,6.734c0,5.891,4.773,10.656,10.664,10.656c3.211,0,6.086-1.422,8.039-3.672
		l0.016,0.016c6.663-7.859,12.022-24.093-0.469-36.64c-1.555-1.562-1.484-2.406-1.219-3.406c0.383-1.5,1.391-2.906,1.75-3.328
		l-0.109,0.125l-0.062-0.047c1.688-1.891,2.727-4.375,2.727-7.109c0-5.891-4.781-10.656-10.672-10.656
		c-3.711,0-6.976,1.891-8.882,4.765C246.245,119.746,241.925,134.496,253.894,146.512z"/>
	<path style="fill:#ED5564;" d="M192.497,266.292l0.141-0.219c1.57,0.906,3.391,1.438,5.336,1.438
		c5.89,0,10.664-4.781,10.664-10.672c0-4.078-2.289-7.609-5.648-9.406c-0.227-0.266-0.391-0.5-0.422-0.641
		c0-0.016,0.141-1.453,2.945-4.266c8.773-8.766,9.734-16.796,8.992-21.968c-1.484-10.469-10.484-15.688-11.508-16.25
		c-5.164-2.844-11.648-0.953-14.484,4.203c-2.836,5.172-0.953,11.656,4.211,14.484c0,0.016,0.359,0.328,0.578,0.594
		c-0.195,0.515-0.836,1.828-2.875,3.859c-8.594,8.593-9.664,16.609-9.047,21.828C182.638,259.964,191.489,265.682,192.497,266.292z"
		/>
	<path style="fill:#ED5564;" d="M298.619,170.995h5.344c2.844,0,5.594-1.156,7.594-3.188s3.109-4.781,3.062-7.625
		c0-0.078-0.078-7.453,1.062-15.749c1.219-8.75,3.094-13.312,4.312-15.266c1.203,1.938,3.062,6.422,4.25,15.031
		c1.156,8.296,1.094,15.905,1.094,15.968c-0.047,2.859,1.062,5.609,3.062,7.641s4.749,3.188,7.593,3.188h5.344
		c5.875,0,10.655-4.781,10.655-10.672c0-4.078-2.28-7.609-5.64-9.406c-0.156-2.453-0.391-5.203-0.766-8.093
		c-1.781-14.109-5.438-23.796-11.188-29.625c-3.999-4.062-8.968-6.203-14.405-6.203s-10.406,2.141-14.406,6.187
		c-8.719,8.843-11.297,26.421-12.031,37.749c-3.328,1.797-5.594,5.328-5.594,9.39C287.963,166.214,292.744,170.995,298.619,170.995z
		"/>
	<path style="fill:#ED5564;" d="M288.01,298.993h-5.328c-2.859,0-5.594,1.14-7.594,3.171c-1.999,2.031-3.116,4.781-3.077,7.625
		c0,0.078,0.078,7.453-1.055,15.75c-1.203,8.75-3.086,13.312-4.305,15.266c-1.211-1.938-3.062-6.422-4.266-15.031
		c-1.156-8.297-1.078-15.906-1.078-15.969c0.047-2.859-1.062-5.609-3.07-7.641c-2-2.031-4.734-3.171-7.593-3.171h-5.328
		c-5.891,0-10.671,4.765-10.671,10.655c0,4.078,2.281,7.609,5.64,9.406c0.164,2.453,0.406,5.203,0.766,8.094
		c1.773,14.109,5.43,23.796,11.18,29.624c4,4.062,8.984,6.219,14.414,6.219s10.413-2.156,14.413-6.203
		c8.719-8.844,11.281-26.421,12.031-37.749c3.312-1.797,5.594-5.328,5.594-9.391C298.682,303.759,293.9,298.993,288.01,298.993z"/>
	<path style="fill:#ED5564;" d="M341.337,320.32v-10.672c0-5.891-4.781-10.655-10.687-10.655c-5.875,0-10.656,4.765-10.656,10.655
		v10.672c-5.891,0-10.656,4.766-10.656,10.672c0,5.891,4.766,10.656,10.656,10.656v10.671c0,5.891,4.781,10.672,10.656,10.672
		c5.905,0,10.687-4.781,10.687-10.672v-10.671c5.875,0,10.655-4.766,10.655-10.656C351.992,325.087,347.212,320.32,341.337,320.32z"
		/>
	<path style="fill:#ED5564;" d="M216.621,321.009c-1.203-0.453-2.484-0.688-3.766-0.688H202.66v-10.672
		c0-5.891-4.773-10.655-10.664-10.655s-10.664,4.765-10.664,10.655v42.671c0,5.891,4.773,10.672,10.664,10.672
		s10.664-4.781,10.664-10.672v-10.671h7c0.055,0.062,0.094,0.125,0.117,0.156c1.258,1.656,1.492,4.656,0.656,8.437
		c-1.266,5.75,2.367,11.438,8.117,12.719c0.781,0.172,1.547,0.25,2.312,0.25c4.891,0,9.305-3.391,10.406-8.375
		C235.832,334.165,223.683,323.665,216.621,321.009z"/>
	<path style="fill:#ED5564;" d="M227.933,240.025c-0.031,0.125-0.07,0.25-0.102,0.391l-3.312,12.922
		c-1.461,5.703,1.977,11.516,7.688,12.984c0.883,0.219,1.773,0.328,2.656,0.328c4.75,0,9.085-3.203,10.32-8.016l1.156-4.484
		l30.436,2.141c2.938,0.219,5.844-0.812,8.016-2.828c2.172-2.031,3.391-4.844,3.391-7.812c0-12.937-3.969-23.343-11.844-30.968
		c-12.296-11.922-29.084-11.75-30.967-11.688c-4.742,0.141-8.812,3.406-9.992,8.016L227.933,240.025z M253.667,225.573
		c2.671,0.828,5.585,2.219,7.929,4.531c1.156,1.141,2.117,2.453,2.891,3.937l-12.765-0.906L253.667,225.573z"/>
</g>
</svg>